# xmcd
#
# Track frame offsets: 
#        150
#        14450
#        30787
#        49103
#        67926
#        87610
#        111782
#        133143
#        155050
#        168966
#        188782
#        206815
#        224050
#        239189
#        257270
#
# Disc length: 3661 seconds
#
# Revision: 0
# Processed by: cddbd v1.5.2PL0 Copyright (c) Steve Scherf et al.
# Submitted via: ExactAudioCopy v0.99pb5
#
DISCID=d90e4b0f
DTITLE=Shawn Pittman With The Moeller Brothers -  - Triple Troubles
DYEAR=2010
DGENRE=Blues
TTITLE0=Hand It Off
TTITLE1=Tell Me
TTITLE2=Hell Or High Water
TTITLE3=Be My Queen
TTITLE4=24 Hours Ain't Enough
TTITLE5=The Judge Should Know
TTITLE6=My Home Is A Prison
TTITLE7=Movin'
TTITLE8=I've Had Enough
TTITLE9=One Thing On My Mind
TTITLE10=I Got A Call
TTITLE11=Train Blues
TTITLE12=Too Much Noise
TTITLE13=Step By Step
TTITLE14=Do Yo Best and Can' Da Rest
EXTD=
EXTT0=
EXTT1=
EXTT2=
EXTT3=
EXTT4=
EXTT5=
EXTT6=
EXTT7=
EXTT8=
EXTT9=
EXTT10=
EXTT11=
EXTT12=
EXTT13=
EXTT14=
PLAYORDER=
